<svg width="59" height="48" viewBox="0 0 59 48" fill="none" xmlns="http://www.w3.org/2000/svg">
<path d="M23.3333 9.5H35C35 8.24022 34.3854 7.03204 33.2915 6.14124C32.1975 5.25044 30.7138 4.75 29.1667 4.75C27.6196 4.75 26.1358 5.25044 25.0419 6.14124C23.9479 7.03204 23.3333 8.24022 23.3333 9.5ZM17.5 9.5C17.5 6.98044 18.7292 4.56408 20.9171 2.78249C23.105 1.00089 26.0725 0 29.1667 0C32.2609 0 35.2283 1.00089 37.4162 2.78249C39.6042 4.56408 40.8333 6.98044 40.8333 9.5H55.4167C56.1902 9.5 56.9321 9.75022 57.4791 10.1956C58.026 10.641 58.3333 11.2451 58.3333 11.875C58.3333 12.5049 58.026 13.109 57.4791 13.5544C56.9321 13.9998 56.1902 14.25 55.4167 14.25H52.8442L50.26 38.8075C50.0116 41.1789 48.6791 43.3879 46.5262 44.9976C44.3734 46.6072 41.5569 47.5003 38.6342 47.5H19.6992C16.7764 47.5003 13.96 46.6072 11.8071 44.9976C9.65423 43.3879 8.32177 41.1789 8.07333 38.8075L5.48917 14.25H2.91667C2.14312 14.25 1.40125 13.9998 0.854272 13.5544C0.307291 13.109 0 12.5049 0 11.875C0 11.2451 0.307291 10.641 0.854272 10.1956C1.40125 9.75022 2.14312 9.5 2.91667 9.5H17.5ZM37.9167 23.75C37.9167 23.1201 37.6094 22.516 37.0624 22.0706C36.5154 21.6252 35.7735 21.375 35 21.375C34.2265 21.375 33.4846 21.6252 32.9376 22.0706C32.3906 22.516 32.0833 23.1201 32.0833 23.75V33.25C32.0833 33.8799 32.3906 34.484 32.9376 34.9294C33.4846 35.3748 34.2265 35.625 35 35.625C35.7735 35.625 36.5154 35.3748 37.0624 34.9294C37.6094 34.484 37.9167 33.8799 37.9167 33.25V23.75ZM23.3333 21.375C22.5598 21.375 21.8179 21.6252 21.2709 22.0706C20.724 22.516 20.4167 23.1201 20.4167 23.75V33.25C20.4167 33.8799 20.724 34.484 21.2709 34.9294C21.8179 35.3748 22.5598 35.625 23.3333 35.625C24.1069 35.625 24.8487 35.3748 25.3957 34.9294C25.9427 34.484 26.25 33.8799 26.25 33.25V23.75C26.25 23.1201 25.9427 22.516 25.3957 22.0706C24.8487 21.6252 24.1069 21.375 23.3333 21.375Z" fill="#FF57DA"/>
</svg>
