<svg width="42" height="42" viewBox="0 0 42 42" fill="none" xmlns="http://www.w3.org/2000/svg">
<path d="M32 14C32 7.373 27.075 2 21 2C14.925 2 10 7.373 10 14M2 14H40L35.8 40H6.2L2 14Z" stroke="white" stroke-width="4" stroke-linecap="round" stroke-linejoin="round"/>
<path d="M14 25C15.1046 25 16 24.1046 16 23C16 21.8954 15.1046 21 14 21C12.8954 21 12 21.8954 12 23C12 24.1046 12.8954 25 14 25Z" fill="white"/>
<path d="M15 30C15 30 17 33 21 33C25 33 27 30 27 30" stroke="white" stroke-width="4" stroke-linecap="round" stroke-linejoin="round"/>
<path d="M28 25C29.1046 25 30 24.1046 30 23C30 21.8954 29.1046 21 28 21C26.8954 21 26 21.8954 26 23C26 24.1046 26.8954 25 28 25Z" fill="white"/>
</svg>
